<svg width="1080" height="886" viewBox="0 0 1080 886" fill="none" xmlns="http://www.w3.org/2000/svg">
<path d="M142.56 198.92L23.76 557.48L550.8 857.72L1058.4 557.48L868.32 248.6L475.2 13.1602L142.56 198.92Z" fill="#EEEEEE"/>
<path fill-rule="evenodd" clip-rule="evenodd" d="M432.011 16.4649C459.404 1.10026 492.907 1.48721 519.937 17.4804L866.047 222.262C869.977 224.587 873.283 227.833 875.681 231.72L1070.87 548.125C1079.23 561.687 1074.7 579.483 1060.86 587.389L553.906 877.079C545.227 882.038 534.57 882.029 525.9 877.054L19.0917 586.263C7.44033 579.577 2.12717 565.597 6.39716 552.861L125.852 196.555C128.076 189.924 132.685 184.356 138.786 180.934L432.011 16.4649ZM502 47.7977C485.781 38.2018 465.68 37.9696 449.244 47.1884L223.443 173.839C204.28 184.588 204.242 212.158 223.376 222.959L534.495 398.591C540.126 401.769 546.691 402.949 553.037 401.714C661.71 380.571 752.894 317.392 807.042 267.707C820.328 255.516 817.319 234.362 801.8 225.18L502 47.7977ZM876.05 299.412C866.325 283.648 844.275 281.343 830.621 293.859C776.136 343.802 687.45 405.764 580.354 431.788C567.193 434.986 557.527 446.527 557.527 460.07V785.876C557.527 807.515 580.903 821.08 599.69 810.344L1011.76 574.878C1025.59 566.972 1030.12 549.177 1021.76 535.614L876.05 299.412ZM480.094 810.159C498.882 820.939 522.3 807.376 522.3 785.716V448.611C522.3 438.446 516.826 429.068 507.973 424.07L183.489 240.894C168.073 232.191 148.544 239.692 142.916 256.477L48.9759 536.679C44.7059 549.415 50.0191 563.395 61.6705 570.08L480.094 810.159Z" fill="#222222"/>
<path d="M462.084 291.282C455.345 295.173 444.418 295.173 437.679 291.282L284.589 202.896C277.85 199.005 277.85 192.696 284.589 188.805L337.387 158.322C349.983 151.05 362.492 146.23 374.914 143.861C387.279 141.46 399.037 141.109 410.188 142.811C421.281 144.479 431.219 147.848 440.001 152.918C447.397 157.188 452.279 161.575 454.648 166.078C456.959 170.548 457.364 174.985 455.862 179.388C454.429 183.523 451.841 187.477 448.096 191.248C447.774 191.573 447.862 191.982 448.32 192.247C448.855 192.556 449.713 192.567 450.288 192.283C456.288 189.326 463.605 187.279 472.242 186.143C481.371 184.876 490.991 185.026 501.102 186.594C511.213 188.161 520.862 191.597 530.049 196.901C539.12 202.139 545.129 208.076 548.076 214.715C551.023 221.286 550.185 228.341 545.562 235.88C540.882 243.386 531.667 251.109 517.916 259.048L462.084 291.282ZM441.492 262.56C448.232 266.451 459.158 266.451 465.898 262.56L492.349 247.289C505.175 239.883 511.878 233.145 512.455 227.074C513.033 221.003 509.595 215.815 502.142 211.512C496.538 208.276 489.98 206.125 482.469 205.057C474.957 203.99 467.186 204.173 459.155 205.608C451.182 207.009 443.613 209.778 436.448 213.914L409.044 229.736C402.304 233.627 402.304 239.935 409.044 243.826L441.492 262.56ZM363.751 217.677C370.491 221.568 381.418 221.568 388.157 217.677L411.835 204.007C417.843 200.537 422.09 196.751 424.575 192.648C427.117 188.512 427.724 184.425 426.395 180.389C425.066 176.286 421.541 172.583 415.821 169.281C408.483 165.044 399.759 162.976 389.648 163.076C379.536 163.176 369.165 166.295 358.534 172.433L334.163 186.503C327.424 190.394 327.424 196.703 334.163 200.594L363.751 217.677Z" fill="#222222"/>
<path fill-rule="evenodd" clip-rule="evenodd" d="M459.021 163.798L459.029 163.813C461.901 169.368 462.503 175.195 460.529 180.98L460.525 180.991L460.522 181.002C460.213 181.894 459.861 182.772 459.469 183.637C463.236 182.612 467.277 181.823 471.581 181.256C481.23 179.918 491.329 180.088 501.858 181.72C512.593 183.385 522.82 187.033 532.515 192.63C542.104 198.167 549.061 204.782 552.582 212.711C556.343 221.112 555.018 229.894 549.767 238.458L549.757 238.474L549.747 238.49C544.421 247.032 534.358 255.249 520.381 263.319L464.55 295.553C460.254 298.033 454.934 299.132 449.881 299.132C444.829 299.132 439.509 298.033 435.213 295.553L282.123 207.167C277.855 204.702 274.603 200.783 274.603 195.85C274.603 190.918 277.855 186.998 282.123 184.534L334.921 154.051C347.922 146.546 360.945 141.505 373.981 139.019C386.833 136.523 399.16 136.14 410.929 137.935C422.565 139.685 433.098 143.238 442.467 148.647C450.182 153.101 456.007 158.068 459.013 163.782L459.021 163.798ZM410.188 142.811C399.037 141.109 387.279 141.46 374.914 143.861C362.492 146.23 349.983 151.05 337.387 158.322L284.589 188.805C277.85 192.696 277.85 199.005 284.589 202.896L437.679 291.282C444.418 295.173 455.345 295.173 462.084 291.282L517.916 259.048C531.667 251.109 540.882 243.386 545.562 235.88C550.185 228.341 551.023 221.286 548.076 214.715C545.129 208.076 539.12 202.139 530.049 196.901C520.862 191.597 511.213 188.161 501.102 186.594C490.991 185.026 481.371 184.876 472.242 186.143C466.044 186.958 460.526 188.243 455.686 189.996C454.697 190.354 453.737 190.732 452.804 191.129C451.941 191.497 451.103 191.882 450.288 192.283C450.016 192.418 449.68 192.486 449.345 192.488C448.973 192.489 448.602 192.409 448.32 192.247C447.862 191.982 447.774 191.573 448.096 191.248C448.478 190.863 448.848 190.477 449.206 190.088C449.563 189.701 449.908 189.312 450.24 188.921C450.48 188.639 450.714 188.356 450.942 188.072C451.515 187.358 452.048 186.637 452.542 185.91C453.984 183.789 455.09 181.615 455.862 179.388C457.364 174.985 456.959 170.548 454.648 166.078C452.279 161.575 447.397 157.188 440.001 152.918C431.219 147.848 421.281 144.479 410.188 142.811ZM460.015 210.464L460.008 210.465C452.615 211.764 445.59 214.33 438.914 218.185L411.51 234.007C409.038 235.434 408.921 236.614 408.921 236.781C408.921 236.948 409.038 238.129 411.51 239.555L443.958 258.289C446.401 259.7 449.915 260.547 453.695 260.547C457.475 260.547 460.988 259.7 463.432 258.289L489.883 243.018C496.104 239.426 500.576 236.142 503.499 233.203C506.47 230.216 507.411 228.023 507.546 226.607C507.867 223.232 506.258 219.583 499.676 215.783C494.703 212.912 488.767 210.934 481.775 209.94C474.82 208.952 467.576 209.113 460.022 210.463L460.015 210.464ZM420.364 190.08L420.373 190.066C422.276 186.969 422.517 184.383 421.71 181.931L421.706 181.92L421.703 181.908C420.906 179.449 418.561 176.557 413.355 173.552C406.917 169.835 399.097 167.914 389.696 168.007C380.598 168.097 371.052 170.9 361 176.704L336.629 190.774C334.158 192.201 334.04 193.382 334.04 193.549C334.04 193.716 334.158 194.896 336.629 196.323L366.217 213.406C368.661 214.817 372.174 215.663 375.954 215.663C379.734 215.663 383.247 214.817 385.691 213.406L409.369 199.736C414.958 196.508 418.451 193.239 420.356 190.094L420.364 190.08ZM429.599 12.1636C458.525 -4.06145 493.904 -3.65283 522.449 13.236L868.558 218.017C873.176 220.75 877.061 224.564 879.878 229.131L1075.06 545.536C1084.89 561.471 1079.57 582.381 1063.31 591.671L556.353 881.361C546.155 887.188 533.633 887.177 523.445 881.331L16.6373 590.54C2.94688 582.685 -3.29608 566.259 1.72116 551.293L121.176 194.987C123.789 187.195 129.205 180.653 136.373 176.633L429.599 12.1636ZM499.488 52.0421C484.783 43.3418 466.558 43.1313 451.656 51.4896L225.856 178.141C210.046 187.008 210.015 209.753 225.8 218.664L536.92 394.296C541.583 396.929 546.96 397.872 552.095 396.873C659.559 375.965 749.947 313.403 803.708 264.073C814.356 254.302 812.197 237.061 799.289 229.424L499.488 52.0421ZM833.953 297.494C779.086 347.788 689.681 410.297 581.518 436.58C570.419 439.277 562.458 448.952 562.458 460.07V785.876C562.458 803.728 581.743 814.919 597.243 806.063L1009.31 570.596C1020.72 564.074 1024.46 549.392 1017.56 538.204L871.852 302.002C863.872 289.064 845.495 286.914 833.953 297.494ZM517.369 785.716V448.611C517.369 440.225 512.852 432.488 505.548 428.365L181.065 245.189C168.346 238.009 152.235 244.197 147.592 258.045L53.6517 538.246C50.129 548.754 54.5124 560.287 64.1248 565.802L482.549 805.882C498.048 814.775 517.369 803.585 517.369 785.716ZM519.937 17.4804C492.907 1.48721 459.404 1.10026 432.011 16.4649L138.786 180.934C132.685 184.356 128.076 189.924 125.852 196.555L6.39716 552.861C2.12717 565.597 7.44033 579.577 19.0917 586.263L525.9 877.054C534.57 882.029 545.227 882.038 553.906 877.079L1060.86 587.389C1074.7 579.483 1079.23 561.687 1070.87 548.125L875.681 231.72C873.283 227.833 869.977 224.587 866.047 222.262L519.937 17.4804ZM449.244 47.1884C465.68 37.9696 485.781 38.2018 502 47.7977L801.8 225.18C817.319 234.362 820.328 255.516 807.042 267.707C752.894 317.392 661.71 380.571 553.037 401.714C546.691 402.949 540.126 401.769 534.495 398.591L223.376 222.959C204.242 212.158 204.28 184.588 223.443 173.839L449.244 47.1884ZM830.621 293.859C844.275 281.343 866.325 283.648 876.05 299.412L1021.76 535.614C1030.12 549.177 1025.59 566.972 1011.76 574.878L599.69 810.344C580.903 821.08 557.527 807.515 557.527 785.876V460.07C557.527 446.527 567.193 434.986 580.354 431.788C687.45 405.764 776.136 343.802 830.621 293.859ZM522.3 785.716C522.3 807.376 498.882 820.939 480.094 810.159L61.6705 570.08C50.0191 563.395 44.7059 549.415 48.9759 536.679L142.916 256.477C148.544 239.692 168.073 232.191 183.489 240.894L507.973 424.07C516.826 429.068 522.3 438.446 522.3 448.611V785.716ZM465.898 262.56C459.158 266.451 448.232 266.451 441.492 262.56L409.044 243.826C402.304 239.935 402.304 233.627 409.044 229.736L436.448 213.914C443.613 209.778 451.182 207.009 459.155 205.608C467.186 204.173 474.957 203.99 482.469 205.057C489.98 206.125 496.538 208.276 502.142 211.512C509.595 215.815 513.033 221.003 512.455 227.074C511.878 233.145 505.175 239.883 492.349 247.289L465.898 262.56ZM388.157 217.677C381.418 221.568 370.491 221.568 363.751 217.677L334.163 200.594C327.424 196.703 327.424 190.394 334.163 186.503L358.534 172.433C369.165 166.295 379.536 163.176 389.648 163.076C399.759 162.976 408.483 165.044 415.821 169.281C421.541 172.583 425.066 176.286 426.395 180.389C427.724 184.425 427.117 188.512 424.575 192.648C422.09 196.751 417.843 200.537 411.835 204.007L388.157 217.677Z" fill="#222222"/>
</svg>
